<svg width="500" height="100" viewBox="0 0 500 100" fill="none" xmlns="http://www.w3.org/2000/svg">
<rect width="500" height="100" fill="white"/>
<g clip-path="url(#clip0_507_109)">
<path d="M164.083 60.8484C166.427 62.4143 169.182 63.25 172 63.25C175.779 63.25 179.404 61.7487 182.076 59.0763C184.749 56.4039 186.25 52.7793 186.25 49C186.25 46.1816 185.414 43.4265 183.848 41.0831C182.283 38.7397 180.057 36.9133 177.453 35.8347C174.849 34.7562 171.984 34.474 169.22 35.0238C166.456 35.5737 163.917 36.9308 161.924 38.9237C159.931 40.9166 158.574 43.4557 158.024 46.22C157.474 48.9842 157.756 51.8494 158.835 54.4532C159.913 57.0571 161.74 59.2826 164.083 60.8484ZM165.472 39.2302C167.404 37.9391 169.676 37.25 172 37.25C175.116 37.25 178.105 38.4879 180.309 40.6915C182.512 42.8951 183.75 45.8837 183.75 49C183.75 51.3239 183.061 53.5957 181.77 55.528C180.479 57.4602 178.644 58.9663 176.497 59.8556C174.35 60.7449 171.987 60.9776 169.708 60.5242C167.428 60.0709 165.335 58.9518 163.692 57.3085C162.048 55.6652 160.929 53.5716 160.476 51.2923C160.022 49.013 160.255 46.6505 161.144 44.5035C162.034 42.3564 163.54 40.5213 165.472 39.2302Z" fill="#0A64A5" stroke="#0A64A5" stroke-width="0.5"/>
<path d="M176.413 56.1768L176.59 56.3536L176.767 56.1768L178.177 54.7668L178.353 54.5902L178.177 54.4134L173.25 49.4766V41V40.75H173H171H170.75V41V50.41V50.5136L170.823 50.5868L176.413 56.1768Z" fill="#FCC100" stroke="#FCC100" stroke-width="0.5"/>
<rect x="186.209" y="64.9769" width="8.5" height="2.5" transform="rotate(-135 186.209 64.9769)" fill="#0A64A5" stroke="#0A64A5" stroke-width="0.5"/>
</g>
<path d="M214.376 61.256C212.669 61.256 211.091 60.9787 209.64 60.424C208.211 59.848 206.963 59.048 205.896 58.024C204.851 56.9787 204.029 55.7627 203.432 54.376C202.835 52.9893 202.536 51.464 202.536 49.8C202.536 48.136 202.835 46.6107 203.432 45.224C204.029 43.8373 204.861 42.632 205.928 41.608C206.995 40.5627 208.243 39.7627 209.672 39.208C211.123 38.632 212.701 38.344 214.408 38.344C216.136 38.344 217.725 38.6427 219.176 39.24C220.648 39.816 221.896 40.68 222.92 41.832L220.84 43.848C219.987 42.952 219.027 42.2907 217.96 41.864C216.893 41.416 215.752 41.192 214.536 41.192C213.277 41.192 212.104 41.4053 211.016 41.832C209.949 42.2587 209.021 42.856 208.232 43.624C207.443 44.392 206.824 45.3093 206.376 46.376C205.949 47.4213 205.736 48.5627 205.736 49.8C205.736 51.0373 205.949 52.1893 206.376 53.256C206.824 54.3013 207.443 55.208 208.232 55.976C209.021 56.744 209.949 57.3413 211.016 57.768C212.104 58.1947 213.277 58.408 214.536 58.408C215.752 58.408 216.893 58.1947 217.96 57.768C219.027 57.32 219.987 56.6373 220.84 55.72L222.92 57.736C221.896 58.888 220.648 59.7627 219.176 60.36C217.725 60.9573 216.125 61.256 214.376 61.256ZM227.037 61V44.04H229.981V48.648L229.693 47.496C230.162 46.3227 230.952 45.4267 232.061 44.808C233.17 44.1893 234.536 43.88 236.157 43.88V46.856C236.029 46.8347 235.901 46.824 235.773 46.824C235.666 46.824 235.56 46.824 235.453 46.824C233.81 46.824 232.509 47.3147 231.549 48.296C230.589 49.2773 230.109 50.696 230.109 52.552V61H227.037ZM247.051 61.192C245.344 61.192 243.83 60.8187 242.507 60.072C241.184 59.3253 240.139 58.3013 239.371 57C238.603 55.6773 238.219 54.184 238.219 52.52C238.219 50.8347 238.603 49.3413 239.371 48.04C240.139 46.7387 241.184 45.7253 242.507 45C243.83 44.2533 245.344 43.88 247.051 43.88C248.736 43.88 250.24 44.2533 251.563 45C252.907 45.7253 253.952 46.7387 254.699 48.04C255.467 49.32 255.851 50.8133 255.851 52.52C255.851 54.2053 255.467 55.6987 254.699 57C253.952 58.3013 252.907 59.3253 251.563 60.072C250.24 60.8187 248.736 61.192 247.051 61.192ZM247.051 58.504C248.139 58.504 249.11 58.2587 249.963 57.768C250.838 57.2773 251.52 56.584 252.011 55.688C252.502 54.7707 252.747 53.7147 252.747 52.52C252.747 51.304 252.502 50.2587 252.011 49.384C251.52 48.488 250.838 47.7947 249.963 47.304C249.11 46.8133 248.139 46.568 247.051 46.568C245.963 46.568 244.992 46.8133 244.139 47.304C243.286 47.7947 242.603 48.488 242.091 49.384C241.579 50.2587 241.323 51.304 241.323 52.52C241.323 53.7147 241.579 54.7707 242.091 55.688C242.603 56.584 243.286 57.2773 244.139 57.768C244.992 58.2587 245.963 58.504 247.051 58.504ZM269.156 43.88C270.542 43.88 271.758 44.1467 272.804 44.68C273.87 45.2133 274.702 46.024 275.3 47.112C275.897 48.2 276.196 49.576 276.196 51.24V61H273.124V51.592C273.124 49.9493 272.718 48.712 271.908 47.88C271.118 47.048 269.998 46.632 268.548 46.632C267.46 46.632 266.51 46.8453 265.7 47.272C264.889 47.6987 264.26 48.328 263.812 49.16C263.385 49.992 263.172 51.0267 263.172 52.264V61H260.1V44.04H263.044V48.616L262.564 47.4C263.118 46.2907 263.972 45.4267 265.124 44.808C266.276 44.1893 267.62 43.88 269.156 43.88ZM285.241 48.264H296.761V50.984H285.241V48.264ZM285.529 58.216H298.585V61H282.329V38.6H298.137V41.384H285.529V58.216ZM303.773 67.4C302.962 67.4 302.173 67.2613 301.405 66.984C300.637 66.728 299.976 66.344 299.421 65.832L300.733 63.528C301.16 63.9333 301.629 64.2427 302.141 64.456C302.653 64.6693 303.197 64.776 303.773 64.776C304.52 64.776 305.138 64.584 305.629 64.2C306.12 63.816 306.578 63.1333 307.005 62.152L308.061 59.816L308.381 59.432L315.037 44.04H318.045L309.821 62.696C309.33 63.8907 308.776 64.8293 308.157 65.512C307.56 66.1947 306.898 66.6747 306.173 66.952C305.448 67.2507 304.648 67.4 303.773 67.4ZM307.805 61.544L300.061 44.04H303.261L309.853 59.144L307.805 61.544ZM327.995 61.192C326.182 61.192 324.582 60.8187 323.195 60.072C321.83 59.3253 320.763 58.3013 319.995 57C319.249 55.6987 318.875 54.2053 318.875 52.52C318.875 50.8347 319.238 49.3413 319.963 48.04C320.71 46.7387 321.723 45.7253 323.003 45C324.305 44.2533 325.766 43.88 327.387 43.88C329.03 43.88 330.481 44.2427 331.739 44.968C332.998 45.6933 333.979 46.7173 334.683 48.04C335.409 49.3413 335.771 50.8667 335.771 52.616C335.771 52.744 335.761 52.8933 335.739 53.064C335.739 53.2347 335.729 53.3947 335.707 53.544H321.275V51.336H334.107L332.859 52.104C332.881 51.016 332.657 50.0453 332.187 49.192C331.718 48.3387 331.067 47.6773 330.235 47.208C329.425 46.7173 328.475 46.472 327.387 46.472C326.321 46.472 325.371 46.7173 324.539 47.208C323.707 47.6773 323.057 48.3493 322.587 49.224C322.118 50.0773 321.883 51.0587 321.883 52.168V52.68C321.883 53.8107 322.139 54.824 322.651 55.72C323.185 56.5947 323.921 57.2773 324.859 57.768C325.798 58.2587 326.875 58.504 328.091 58.504C329.094 58.504 330.001 58.3333 330.811 57.992C331.643 57.6507 332.369 57.1387 332.987 56.456L334.683 58.44C333.915 59.336 332.955 60.0187 331.803 60.488C330.673 60.9573 329.403 61.192 327.995 61.192Z" fill="black"/>
<defs>
<clipPath id="clip0_507_109">
<rect width="32" height="32" fill="white" transform="translate(157 34)"/>
</clipPath>
</defs>
</svg>
