<svg width="1024" height="100" viewBox="0 0 1024 100" fill="none" xmlns="http://www.w3.org/2000/svg">
<rect width="1024" height="100" fill="white"/>
<g clip-path="url(#clip0_507_110)">
<path d="M426.083 60.8484C428.427 62.4143 431.182 63.25 434 63.25C437.779 63.25 441.404 61.7487 444.076 59.0763C446.749 56.4039 448.25 52.7793 448.25 49C448.25 46.1816 447.414 43.4265 445.848 41.0831C444.283 38.7397 442.057 36.9133 439.453 35.8347C436.849 34.7562 433.984 34.474 431.22 35.0238C428.456 35.5737 425.917 36.9308 423.924 38.9237C421.931 40.9166 420.574 43.4557 420.024 46.22C419.474 48.9842 419.756 51.8494 420.835 54.4532C421.913 57.0571 423.74 59.2826 426.083 60.8484ZM427.472 39.2302C429.404 37.9391 431.676 37.25 434 37.25C437.116 37.25 440.105 38.4879 442.309 40.6915C444.512 42.8951 445.75 45.8837 445.75 49C445.75 51.3239 445.061 53.5957 443.77 55.528C442.479 57.4602 440.644 58.9663 438.497 59.8556C436.35 60.7449 433.987 60.9776 431.708 60.5242C429.428 60.0709 427.335 58.9518 425.692 57.3085C424.048 55.6652 422.929 53.5716 422.476 51.2923C422.022 49.013 422.255 46.6505 423.144 44.5035C424.034 42.3564 425.54 40.5213 427.472 39.2302Z" fill="#0A64A5" stroke="#0A64A5" stroke-width="0.5"/>
<path d="M438.413 56.1768L438.59 56.3536L438.767 56.1768L440.177 54.7668L440.353 54.5902L440.177 54.4134L435.25 49.4766V41V40.75H435H433H432.75V41V50.41V50.5136L432.823 50.5868L438.413 56.1768Z" fill="#FCC100" stroke="#FCC100" stroke-width="0.5"/>
<rect x="448.209" y="64.977" width="8.5" height="2.5" transform="rotate(-135 448.209 64.977)" fill="#0A64A5" stroke="#0A64A5" stroke-width="0.5"/>
</g>
<path d="M476.376 61.256C474.669 61.256 473.091 60.9787 471.64 60.424C470.211 59.848 468.963 59.048 467.896 58.024C466.851 56.9787 466.029 55.7627 465.432 54.376C464.835 52.9893 464.536 51.464 464.536 49.8C464.536 48.136 464.835 46.6107 465.432 45.224C466.029 43.8373 466.861 42.632 467.928 41.608C468.995 40.5627 470.243 39.7627 471.672 39.208C473.123 38.632 474.701 38.344 476.408 38.344C478.136 38.344 479.725 38.6427 481.176 39.24C482.648 39.816 483.896 40.68 484.92 41.832L482.84 43.848C481.987 42.952 481.027 42.2907 479.96 41.864C478.893 41.416 477.752 41.192 476.536 41.192C475.277 41.192 474.104 41.4053 473.016 41.832C471.949 42.2587 471.021 42.856 470.232 43.624C469.443 44.392 468.824 45.3093 468.376 46.376C467.949 47.4213 467.736 48.5627 467.736 49.8C467.736 51.0373 467.949 52.1893 468.376 53.256C468.824 54.3013 469.443 55.208 470.232 55.976C471.021 56.744 471.949 57.3413 473.016 57.768C474.104 58.1947 475.277 58.408 476.536 58.408C477.752 58.408 478.893 58.1947 479.96 57.768C481.027 57.32 481.987 56.6373 482.84 55.72L484.92 57.736C483.896 58.888 482.648 59.7627 481.176 60.36C479.725 60.9573 478.125 61.256 476.376 61.256ZM489.037 61V44.04H491.981V48.648L491.693 47.496C492.162 46.3227 492.952 45.4267 494.061 44.808C495.17 44.1893 496.536 43.88 498.157 43.88V46.856C498.029 46.8347 497.901 46.824 497.773 46.824C497.666 46.824 497.56 46.824 497.453 46.824C495.81 46.824 494.509 47.3147 493.549 48.296C492.589 49.2773 492.109 50.696 492.109 52.552V61H489.037ZM509.051 61.192C507.344 61.192 505.83 60.8187 504.507 60.072C503.184 59.3253 502.139 58.3013 501.371 57C500.603 55.6773 500.219 54.184 500.219 52.52C500.219 50.8347 500.603 49.3413 501.371 48.04C502.139 46.7387 503.184 45.7253 504.507 45C505.83 44.2533 507.344 43.88 509.051 43.88C510.736 43.88 512.24 44.2533 513.563 45C514.907 45.7253 515.952 46.7387 516.699 48.04C517.467 49.32 517.851 50.8133 517.851 52.52C517.851 54.2053 517.467 55.6987 516.699 57C515.952 58.3013 514.907 59.3253 513.563 60.072C512.24 60.8187 510.736 61.192 509.051 61.192ZM509.051 58.504C510.139 58.504 511.11 58.2587 511.963 57.768C512.838 57.2773 513.52 56.584 514.011 55.688C514.502 54.7707 514.747 53.7147 514.747 52.52C514.747 51.304 514.502 50.2587 514.011 49.384C513.52 48.488 512.838 47.7947 511.963 47.304C511.11 46.8133 510.139 46.568 509.051 46.568C507.963 46.568 506.992 46.8133 506.139 47.304C505.286 47.7947 504.603 48.488 504.091 49.384C503.579 50.2587 503.323 51.304 503.323 52.52C503.323 53.7147 503.579 54.7707 504.091 55.688C504.603 56.584 505.286 57.2773 506.139 57.768C506.992 58.2587 507.963 58.504 509.051 58.504ZM531.156 43.88C532.542 43.88 533.758 44.1467 534.804 44.68C535.87 45.2133 536.702 46.024 537.3 47.112C537.897 48.2 538.196 49.576 538.196 51.24V61H535.124V51.592C535.124 49.9493 534.718 48.712 533.908 47.88C533.118 47.048 531.998 46.632 530.548 46.632C529.46 46.632 528.51 46.8453 527.7 47.272C526.889 47.6987 526.26 48.328 525.812 49.16C525.385 49.992 525.172 51.0267 525.172 52.264V61H522.1V44.04H525.044V48.616L524.564 47.4C525.118 46.2907 525.972 45.4267 527.124 44.808C528.276 44.1893 529.62 43.88 531.156 43.88ZM547.241 48.264H558.761V50.984H547.241V48.264ZM547.529 58.216H560.585V61H544.329V38.6H560.137V41.384H547.529V58.216ZM565.773 67.4C564.962 67.4 564.173 67.2613 563.405 66.984C562.637 66.728 561.976 66.344 561.421 65.832L562.733 63.528C563.16 63.9333 563.629 64.2427 564.141 64.456C564.653 64.6693 565.197 64.776 565.773 64.776C566.52 64.776 567.138 64.584 567.629 64.2C568.12 63.816 568.578 63.1333 569.005 62.152L570.061 59.816L570.381 59.432L577.037 44.04H580.045L571.821 62.696C571.33 63.8907 570.776 64.8293 570.157 65.512C569.56 66.1947 568.898 66.6747 568.173 66.952C567.448 67.2507 566.648 67.4 565.773 67.4ZM569.805 61.544L562.061 44.04H565.261L571.853 59.144L569.805 61.544ZM589.995 61.192C588.182 61.192 586.582 60.8187 585.195 60.072C583.83 59.3253 582.763 58.3013 581.995 57C581.249 55.6987 580.875 54.2053 580.875 52.52C580.875 50.8347 581.238 49.3413 581.963 48.04C582.71 46.7387 583.723 45.7253 585.003 45C586.305 44.2533 587.766 43.88 589.387 43.88C591.03 43.88 592.481 44.2427 593.739 44.968C594.998 45.6933 595.979 46.7173 596.683 48.04C597.409 49.3413 597.771 50.8667 597.771 52.616C597.771 52.744 597.761 52.8933 597.739 53.064C597.739 53.2347 597.729 53.3947 597.707 53.544H583.275V51.336H596.107L594.859 52.104C594.881 51.016 594.657 50.0453 594.187 49.192C593.718 48.3387 593.067 47.6773 592.235 47.208C591.425 46.7173 590.475 46.472 589.387 46.472C588.321 46.472 587.371 46.7173 586.539 47.208C585.707 47.6773 585.057 48.3493 584.587 49.224C584.118 50.0773 583.883 51.0587 583.883 52.168V52.68C583.883 53.8107 584.139 54.824 584.651 55.72C585.185 56.5947 585.921 57.2773 586.859 57.768C587.798 58.2587 588.875 58.504 590.091 58.504C591.094 58.504 592.001 58.3333 592.811 57.992C593.643 57.6507 594.369 57.1387 594.987 56.456L596.683 58.44C595.915 59.336 594.955 60.0187 593.803 60.488C592.673 60.9573 591.403 61.192 589.995 61.192Z" fill="black"/>
<defs>
<clipPath id="clip0_507_110">
<rect width="32" height="32" fill="white" transform="translate(419 34)"/>
</clipPath>
</defs>
</svg>
