<svg width="1024" height="100" viewBox="0 0 1024 100" fill="none" xmlns="http://www.w3.org/2000/svg">
<rect width="1024" height="100" fill="white"/>
<path d="M439.344 73.512C435.931 73.512 432.774 72.9573 429.872 71.848C427.014 70.696 424.518 69.096 422.384 67.048C420.294 64.9573 418.651 62.5253 417.456 59.752C416.262 56.9787 415.664 53.928 415.664 50.6C415.664 47.272 416.262 44.2213 417.456 41.448C418.651 38.6747 420.315 36.264 422.448 34.216C424.582 32.1253 427.078 30.5253 429.936 29.416C432.838 28.264 435.995 27.688 439.408 27.688C442.864 27.688 446.043 28.2853 448.944 29.48C451.888 30.632 454.384 32.36 456.432 34.664L452.272 38.696C450.566 36.904 448.646 35.5813 446.512 34.728C444.379 33.832 442.096 33.384 439.664 33.384C437.147 33.384 434.8 33.8107 432.624 34.664C430.491 35.5173 428.635 36.712 427.056 38.248C425.478 39.784 424.24 41.6187 423.344 43.752C422.491 45.8427 422.064 48.1253 422.064 50.6C422.064 53.0747 422.491 55.3787 423.344 57.512C424.24 59.6027 425.478 61.416 427.056 62.952C428.635 64.488 430.491 65.6827 432.624 66.536C434.8 67.3893 437.147 67.816 439.664 67.816C442.096 67.816 444.379 67.3893 446.512 66.536C448.646 65.64 450.566 64.2747 452.272 62.44L456.432 66.472C454.384 68.776 451.888 70.5253 448.944 71.72C446.043 72.9147 442.843 73.512 439.344 73.512ZM464.666 73V39.08H470.554V48.296L469.978 45.992C470.917 43.6453 472.496 41.8533 474.714 40.616C476.933 39.3787 479.664 38.76 482.906 38.76V44.712C482.65 44.6693 482.394 44.648 482.138 44.648C481.925 44.648 481.712 44.648 481.498 44.648C478.213 44.648 475.61 45.6293 473.69 47.592C471.77 49.5547 470.81 52.392 470.81 56.104V73H464.666ZM504.694 73.384C501.281 73.384 498.252 72.6373 495.606 71.144C492.961 69.6507 490.87 67.6027 489.334 65C487.798 62.3547 487.03 59.368 487.03 56.04C487.03 52.6693 487.798 49.6827 489.334 47.08C490.87 44.4773 492.961 42.4507 495.606 41C498.252 39.5067 501.281 38.76 504.694 38.76C508.065 38.76 511.073 39.5067 513.718 41C516.406 42.4507 518.497 44.4773 519.99 47.08C521.526 49.64 522.294 52.6267 522.294 56.04C522.294 59.4107 521.526 62.3973 519.99 65C518.497 67.6027 516.406 69.6507 513.718 71.144C511.073 72.6373 508.065 73.384 504.694 73.384ZM504.694 68.008C506.87 68.008 508.812 67.5173 510.518 66.536C512.268 65.5547 513.633 64.168 514.614 62.376C515.596 60.5413 516.086 58.4293 516.086 56.04C516.086 53.608 515.596 51.5173 514.614 49.768C513.633 47.976 512.268 46.5893 510.518 45.608C508.812 44.6267 506.87 44.136 504.694 44.136C502.518 44.136 500.577 44.6267 498.87 45.608C497.164 46.5893 495.798 47.976 494.774 49.768C493.75 51.5173 493.238 53.608 493.238 56.04C493.238 58.4293 493.75 60.5413 494.774 62.376C495.798 64.168 497.164 65.5547 498.87 66.536C500.577 67.5173 502.518 68.008 504.694 68.008ZM548.903 38.76C551.677 38.76 554.109 39.2933 556.199 40.36C558.333 41.4267 559.997 43.048 561.191 45.224C562.386 47.4 562.983 50.152 562.983 53.48V73H556.839V54.184C556.839 50.8987 556.029 48.424 554.407 46.76C552.829 45.096 550.589 44.264 547.687 44.264C545.511 44.264 543.613 44.6907 541.991 45.544C540.37 46.3973 539.111 47.656 538.215 49.32C537.362 50.984 536.935 53.0533 536.935 55.528V73H530.791V39.08H536.679V48.232L535.719 45.8C536.829 43.5813 538.535 41.8533 540.839 40.616C543.143 39.3787 545.831 38.76 548.903 38.76ZM581.074 47.528H604.114V52.968H581.074V47.528ZM581.65 67.432H607.762V73H575.25V28.2H606.866V33.768H581.65V67.432ZM618.138 85.8C616.517 85.8 614.938 85.5227 613.402 84.968C611.866 84.456 610.544 83.688 609.434 82.664L612.058 78.056C612.912 78.8667 613.85 79.4853 614.874 79.912C615.898 80.3387 616.986 80.552 618.138 80.552C619.632 80.552 620.869 80.168 621.85 79.4C622.832 78.632 623.749 77.2667 624.602 75.304L626.714 70.632L627.354 69.864L640.666 39.08H646.682L630.234 76.392C629.253 78.7813 628.144 80.6587 626.906 82.024C625.712 83.3893 624.389 84.3493 622.938 84.904C621.488 85.5013 619.888 85.8 618.138 85.8ZM626.202 74.088L610.714 39.08H617.114L630.298 69.288L626.202 74.088ZM666.583 73.384C662.956 73.384 659.756 72.6373 656.983 71.144C654.252 69.6507 652.119 67.6027 650.583 65C649.089 62.3973 648.343 59.4107 648.343 56.04C648.343 52.6693 649.068 49.6827 650.519 47.08C652.012 44.4773 654.039 42.4507 656.599 41C659.201 39.5067 662.124 38.76 665.367 38.76C668.652 38.76 671.553 39.4853 674.071 40.936C676.588 42.3867 678.551 44.4347 679.959 47.08C681.409 49.6827 682.135 52.7333 682.135 56.232C682.135 56.488 682.113 56.7867 682.071 57.128C682.071 57.4693 682.049 57.7893 682.007 58.088H653.143V53.672H678.807L676.311 55.208C676.353 53.032 675.905 51.0907 674.967 49.384C674.028 47.6773 672.727 46.3547 671.063 45.416C669.441 44.4347 667.543 43.944 665.367 43.944C663.233 43.944 661.335 44.4347 659.671 45.416C658.007 46.3547 656.705 47.6987 655.767 49.448C654.828 51.1547 654.359 53.1173 654.359 55.336V56.36C654.359 58.6213 654.871 60.648 655.895 62.44C656.961 64.1893 658.433 65.5547 660.311 66.536C662.188 67.5173 664.343 68.008 666.775 68.008C668.78 68.008 670.593 67.6667 672.215 66.984C673.879 66.3013 675.329 65.2773 676.567 63.912L679.959 67.88C678.423 69.672 676.503 71.0373 674.199 71.976C671.937 72.9147 669.399 73.384 666.583 73.384Z" fill="black"/>
<g clip-path="url(#clip0_507_110)">
<path d="M344.238 70.4419C348.86 73.4267 354.294 75.0193 359.853 75.0193C367.306 75.0193 374.455 72.1584 379.728 67.0635C385.001 61.9682 387.965 55.0558 387.965 47.8462C387.965 42.4699 386.315 37.2151 383.225 32.7463C380.135 28.2777 375.744 24.796 370.608 22.7404C365.472 20.6848 359.821 20.1471 354.37 21.1949C348.918 22.2428 343.909 24.8294 339.977 28.6289C336.045 32.4285 333.366 37.2706 332.281 42.5434C331.195 47.8161 331.752 53.2814 333.881 58.2477C336.01 63.2139 339.615 67.4572 344.238 70.4419ZM346.72 28.8685C350.607 26.3591 355.177 25.0193 359.853 25.0193C366.123 25.0193 372.135 27.4262 376.566 31.7081C380.997 35.9897 383.485 41.7949 383.485 47.8462C383.485 52.359 382.1 56.7712 379.504 60.5248C376.909 64.2786 373.218 67.2056 368.899 68.9344C364.58 70.6632 359.827 71.1156 355.241 70.2342C350.655 69.3528 346.444 67.1773 343.139 63.9843C339.835 60.7913 337.586 56.7242 336.674 52.2979C335.763 47.8716 336.231 43.2835 338.018 39.1135C339.806 34.9434 342.834 31.3777 346.72 28.8685Z" fill="#0A64A5" stroke="#0A64A5" stroke-width="0.5"/>
<path d="M368.814 61.4875L368.987 61.6553L369.161 61.4875L371.967 58.7759L372.153 58.5963L371.967 58.4166L362.093 48.8556V32.4615V32.2115H361.843H357.862H357.612V32.4615V50.5577V50.6638L357.689 50.7375L368.814 61.4875Z" fill="#FCC100" stroke="#FCC100" stroke-width="0.5"/>
<rect y="0.34744" width="16.1553" height="4.41382" transform="matrix(-0.719125 -0.694881 0.719125 -0.694881 387.881 78.48)" fill="#0A64A5" stroke="#0A64A5" stroke-width="0.5"/>
</g>
<defs>
<clipPath id="clip0_507_110">
<rect width="63.6855" height="61.5385" fill="white" transform="translate(330 19)"/>
</clipPath>
</defs>
</svg>
