<svg width="250" height="100" viewBox="0 0 250 100" fill="none" xmlns="http://www.w3.org/2000/svg">
<rect width="250" height="100" fill="white"/>
<g clip-path="url(#clip0_506_107)">
<path d="M38.0831 60.8484C40.4265 62.4143 43.1816 63.25 46 63.25C49.7793 63.25 53.4039 61.7487 56.0763 59.0763C58.7487 56.4039 60.25 52.7793 60.25 49C60.25 46.1816 59.4143 43.4265 57.8484 41.0831C56.2826 38.7397 54.0571 36.9133 51.4532 35.8347C48.8494 34.7562 45.9842 34.474 43.22 35.0238C40.4557 35.5737 37.9166 36.9308 35.9237 38.9237C33.9308 40.9166 32.5737 43.4557 32.0238 46.22C31.474 48.9842 31.7562 51.8494 32.8347 54.4532C33.9133 57.0571 35.7397 59.2826 38.0831 60.8484ZM39.4721 39.2302C41.4043 37.9391 43.6761 37.25 46 37.25C49.1163 37.25 52.105 38.4879 54.3085 40.6915C56.5121 42.8951 57.75 45.8837 57.75 49C57.75 51.3239 57.0609 53.5957 55.7698 55.528C54.4787 57.4602 52.6436 58.9663 50.4965 59.8556C48.3495 60.7449 45.987 60.9776 43.7077 60.5242C41.4284 60.0709 39.3348 58.9518 37.6915 57.3085C36.0482 55.6652 34.9292 53.5716 34.4758 51.2923C34.0224 49.013 34.2551 46.6505 35.1444 44.5035C36.0338 42.3564 37.5398 40.5213 39.4721 39.2302Z" fill="#0A64A5" stroke="#0A64A5" stroke-width="0.5"/>
<path d="M50.4132 56.1768L50.59 56.3536L50.7668 56.1768L52.1768 54.7668L52.3534 54.5902L52.177 54.4134L47.25 49.4766V41V40.75H47H45H44.75V41V50.41V50.5136L44.8232 50.5868L50.4132 56.1768Z" fill="#FCC100" stroke="#FCC100" stroke-width="0.5"/>
<rect x="60.209" y="64.9769" width="8.5" height="2.5" transform="rotate(-135 60.209 64.9769)" fill="#0A64A5" stroke="#0A64A5" stroke-width="0.5"/>
</g>
<path d="M88.376 61.256C86.6693 61.256 85.0907 60.9787 83.64 60.424C82.2107 59.848 80.9627 59.048 79.896 58.024C78.8507 56.9787 78.0293 55.7627 77.432 54.376C76.8347 52.9893 76.536 51.464 76.536 49.8C76.536 48.136 76.8347 46.6107 77.432 45.224C78.0293 43.8373 78.8613 42.632 79.928 41.608C80.9947 40.5627 82.2427 39.7627 83.672 39.208C85.1227 38.632 86.7013 38.344 88.408 38.344C90.136 38.344 91.7253 38.6427 93.176 39.24C94.648 39.816 95.896 40.68 96.92 41.832L94.84 43.848C93.9867 42.952 93.0267 42.2907 91.96 41.864C90.8933 41.416 89.752 41.192 88.536 41.192C87.2773 41.192 86.104 41.4053 85.016 41.832C83.9493 42.2587 83.0213 42.856 82.232 43.624C81.4427 44.392 80.824 45.3093 80.376 46.376C79.9493 47.4213 79.736 48.5627 79.736 49.8C79.736 51.0373 79.9493 52.1893 80.376 53.256C80.824 54.3013 81.4427 55.208 82.232 55.976C83.0213 56.744 83.9493 57.3413 85.016 57.768C86.104 58.1947 87.2773 58.408 88.536 58.408C89.752 58.408 90.8933 58.1947 91.96 57.768C93.0267 57.32 93.9867 56.6373 94.84 55.72L96.92 57.736C95.896 58.888 94.648 59.7627 93.176 60.36C91.7253 60.9573 90.1253 61.256 88.376 61.256ZM101.037 61V44.04H103.981V48.648L103.693 47.496C104.162 46.3227 104.952 45.4267 106.061 44.808C107.17 44.1893 108.536 43.88 110.157 43.88V46.856C110.029 46.8347 109.901 46.824 109.773 46.824C109.666 46.824 109.56 46.824 109.453 46.824C107.81 46.824 106.509 47.3147 105.549 48.296C104.589 49.2773 104.109 50.696 104.109 52.552V61H101.037ZM121.051 61.192C119.344 61.192 117.83 60.8187 116.507 60.072C115.184 59.3253 114.139 58.3013 113.371 57C112.603 55.6773 112.219 54.184 112.219 52.52C112.219 50.8347 112.603 49.3413 113.371 48.04C114.139 46.7387 115.184 45.7253 116.507 45C117.83 44.2533 119.344 43.88 121.051 43.88C122.736 43.88 124.24 44.2533 125.563 45C126.907 45.7253 127.952 46.7387 128.699 48.04C129.467 49.32 129.851 50.8133 129.851 52.52C129.851 54.2053 129.467 55.6987 128.699 57C127.952 58.3013 126.907 59.3253 125.563 60.072C124.24 60.8187 122.736 61.192 121.051 61.192ZM121.051 58.504C122.139 58.504 123.11 58.2587 123.963 57.768C124.838 57.2773 125.52 56.584 126.011 55.688C126.502 54.7707 126.747 53.7147 126.747 52.52C126.747 51.304 126.502 50.2587 126.011 49.384C125.52 48.488 124.838 47.7947 123.963 47.304C123.11 46.8133 122.139 46.568 121.051 46.568C119.963 46.568 118.992 46.8133 118.139 47.304C117.286 47.7947 116.603 48.488 116.091 49.384C115.579 50.2587 115.323 51.304 115.323 52.52C115.323 53.7147 115.579 54.7707 116.091 55.688C116.603 56.584 117.286 57.2773 118.139 57.768C118.992 58.2587 119.963 58.504 121.051 58.504ZM143.156 43.88C144.542 43.88 145.758 44.1467 146.804 44.68C147.87 45.2133 148.702 46.024 149.3 47.112C149.897 48.2 150.196 49.576 150.196 51.24V61H147.124V51.592C147.124 49.9493 146.718 48.712 145.908 47.88C145.118 47.048 143.998 46.632 142.548 46.632C141.46 46.632 140.51 46.8453 139.7 47.272C138.889 47.6987 138.26 48.328 137.812 49.16C137.385 49.992 137.172 51.0267 137.172 52.264V61H134.1V44.04H137.044V48.616L136.564 47.4C137.118 46.2907 137.972 45.4267 139.124 44.808C140.276 44.1893 141.62 43.88 143.156 43.88ZM159.241 48.264H170.761V50.984H159.241V48.264ZM159.529 58.216H172.585V61H156.329V38.6H172.137V41.384H159.529V58.216ZM177.773 67.4C176.962 67.4 176.173 67.2613 175.405 66.984C174.637 66.728 173.976 66.344 173.421 65.832L174.733 63.528C175.16 63.9333 175.629 64.2427 176.141 64.456C176.653 64.6693 177.197 64.776 177.773 64.776C178.52 64.776 179.138 64.584 179.629 64.2C180.12 63.816 180.578 63.1333 181.005 62.152L182.061 59.816L182.381 59.432L189.037 44.04H192.045L183.821 62.696C183.33 63.8907 182.776 64.8293 182.157 65.512C181.56 66.1947 180.898 66.6747 180.173 66.952C179.448 67.2507 178.648 67.4 177.773 67.4ZM181.805 61.544L174.061 44.04H177.261L183.853 59.144L181.805 61.544ZM201.995 61.192C200.182 61.192 198.582 60.8187 197.195 60.072C195.83 59.3253 194.763 58.3013 193.995 57C193.249 55.6987 192.875 54.2053 192.875 52.52C192.875 50.8347 193.238 49.3413 193.963 48.04C194.71 46.7387 195.723 45.7253 197.003 45C198.305 44.2533 199.766 43.88 201.387 43.88C203.03 43.88 204.481 44.2427 205.739 44.968C206.998 45.6933 207.979 46.7173 208.683 48.04C209.409 49.3413 209.771 50.8667 209.771 52.616C209.771 52.744 209.761 52.8933 209.739 53.064C209.739 53.2347 209.729 53.3947 209.707 53.544H195.275V51.336H208.107L206.859 52.104C206.881 51.016 206.657 50.0453 206.187 49.192C205.718 48.3387 205.067 47.6773 204.235 47.208C203.425 46.7173 202.475 46.472 201.387 46.472C200.321 46.472 199.371 46.7173 198.539 47.208C197.707 47.6773 197.057 48.3493 196.587 49.224C196.118 50.0773 195.883 51.0587 195.883 52.168V52.68C195.883 53.8107 196.139 54.824 196.651 55.72C197.185 56.5947 197.921 57.2773 198.859 57.768C199.798 58.2587 200.875 58.504 202.091 58.504C203.094 58.504 204.001 58.3333 204.811 57.992C205.643 57.6507 206.369 57.1387 206.987 56.456L208.683 58.44C207.915 59.336 206.955 60.0187 205.803 60.488C204.673 60.9573 203.403 61.192 201.995 61.192Z" fill="black"/>
<defs>
<clipPath id="clip0_506_107">
<rect width="32" height="32" fill="white" transform="translate(31 34)"/>
</clipPath>
</defs>
</svg>
