<svg width="32" height="32" viewBox="0 0 32 32" fill="none" xmlns="http://www.w3.org/2000/svg">
<g clip-path="url(#clip0_402_93)">
<path d="M7.08313 26.8484C9.42653 28.4143 12.1816 29.25 15 29.25C18.7793 29.25 22.4039 27.7487 25.0763 25.0763C27.7487 22.4039 29.25 18.7793 29.25 15C29.25 12.1816 28.4143 9.42653 26.8484 7.08313C25.2826 4.73973 23.0571 2.91327 20.4532 1.83472C17.8494 0.756174 14.9842 0.473977 12.22 1.02382C9.45574 1.57366 6.91663 2.93084 4.92373 4.92373C2.93084 6.91663 1.57366 9.45574 1.02382 12.22C0.473977 14.9842 0.756174 17.8494 1.83472 20.4532C2.91327 23.0571 4.73973 25.2826 7.08313 26.8484ZM8.47206 5.23024C10.4043 3.93913 12.6761 3.25001 15 3.25001C18.1163 3.25001 21.105 4.48795 23.3085 6.6915C25.5121 8.89505 26.75 11.8837 26.75 15C26.75 17.3239 26.0609 19.5957 24.7698 21.528C23.4787 23.4602 21.6436 24.9663 19.4965 25.8556C17.3495 26.7449 14.987 26.9776 12.7077 26.5242C10.4284 26.0709 8.33477 24.9518 6.6915 23.3085C5.04823 21.6652 3.92916 19.5716 3.47578 17.2923C3.0224 15.013 3.25509 12.6505 4.14442 10.5035C5.03375 8.35645 6.53978 6.52135 8.47206 5.23024Z" fill="#0A64A5" stroke="#0A64A5" stroke-width="0.5"/>
<path d="M19.4132 22.1768L19.59 22.3536L19.7668 22.1768L21.1768 20.7668L21.3534 20.5902L21.177 20.4134L16.25 15.4766V7V6.75H16H14H13.75V7V16.41V16.5136L13.8232 16.5868L19.4132 22.1768Z" fill="#FCC100" stroke="#FCC100" stroke-width="0.5"/>
<rect x="29.209" y="30.9769" width="8.5" height="2.5" transform="rotate(-135 29.209 30.9769)" fill="#0A64A5" stroke="#0A64A5" stroke-width="0.5"/>
</g>
<defs>
<clipPath id="clip0_402_93">
<rect width="32" height="32" fill="white"/>
</clipPath>
</defs>
</svg>
